<svg width="358" height="331" viewBox="0 0 358 331" fill="none" xmlns="http://www.w3.org/2000/svg">
<path d="M351.463 200.642H341.183C343.753 189.152 345.114 177.208 345.114 164.962C345.114 75.2344 272.394 2.43915 182.591 2.43915C92.7872 2.43915 42.0648 55.2025 24.6786 126.335H6.53654C3.36167 126.335 0.715942 128.905 0.715942 132.155V139.488C0.715942 142.663 3.28608 145.308 6.53654 145.308H21.2014C20.4455 151.734 19.9919 158.386 19.9919 165.038C19.9919 254.766 92.7116 327.561 182.515 327.561C272.318 327.561 313.214 282.508 335.589 219.615H351.312C354.487 219.615 357.133 217.045 357.133 213.795V206.462C357.133 203.287 354.563 200.642 351.312 200.642H351.463ZM322.512 200.642H258.41C255.235 200.642 252.589 203.212 252.589 206.462V213.795C252.589 216.97 255.159 219.615 258.41 219.615H316.238C313.516 226.267 310.341 232.617 306.713 238.74H214.793C211.618 238.74 208.972 241.31 208.972 244.561V251.893C208.972 255.068 211.542 257.714 214.793 257.714H293.333C266.876 289.387 227.039 309.494 182.591 309.494C102.841 309.494 38.2096 244.863 38.2096 165.113C38.2096 85.3637 38.6632 151.809 39.5703 145.384H99.5905C102.765 145.384 105.411 142.814 105.411 139.563V132.231C105.411 129.056 102.841 126.41 99.5905 126.41H43.4255C45.2397 119.834 47.5075 113.484 50.2288 107.285H143.207C146.382 107.285 149.028 104.715 149.028 101.465V94.1324C149.028 90.9576 146.458 88.3118 143.207 88.3118H60.207C85.7571 47.6433 130.961 20.5813 182.591 20.5813C262.34 20.5813 326.972 85.2125 326.972 164.962C326.972 244.712 325.46 189.227 322.512 200.642Z" fill="#310047"/>
<path d="M347.972 165.513C347.972 256.666 274.078 330.561 182.924 330.561C91.771 330.561 17.8765 256.666 17.8765 165.513C17.8765 74.3595 91.771 0.465027 182.924 0.465027C274.078 0.465027 347.972 74.3595 347.972 165.513ZM45.669 165.513C45.669 241.317 107.12 302.768 182.924 302.768C258.729 302.768 320.18 241.317 320.18 165.513C320.18 89.7089 258.729 28.2576 182.924 28.2576C107.12 28.2576 45.669 89.7089 45.669 165.513Z" fill="#310047"/>
<path d="M66.4401 245.09L131.752 240.176L94.7871 186.128L66.4401 245.09Z" fill="#310047"/>
<path d="M100.838 181.96L110.338 195.886L246.846 102.766L237.346 88.8404L100.838 181.96Z" fill="#310047"/>
<path d="M113.869 201.05L124.988 217.349L261.496 124.229L250.378 107.93L113.869 201.05Z" fill="#310047"/>
<path d="M128.628 222.282L138.255 236.395L274.764 143.276L265.136 129.163L128.628 222.282Z" fill="#310047"/>
<path d="M281.395 140.074L243.804 84.5519L257.387 75.3555C272.723 64.9724 293.55 69.0376 303.891 84.3107C314.274 99.6464 310.209 120.474 294.936 130.815L281.353 140.011L281.395 140.074Z" fill="#310047"/>
<path d="M197.139 254.69C200.604 254.69 203.413 251.881 203.413 248.416C203.413 244.951 200.604 242.142 197.139 242.142C193.674 242.142 190.865 244.951 190.865 248.416C190.865 251.881 193.674 254.69 197.139 254.69Z" fill="#310047"/>
<path d="M165.844 104.564C169.309 104.564 172.118 101.755 172.118 98.29C172.118 94.8249 169.309 92.0158 165.844 92.0158C162.379 92.0158 159.57 94.8249 159.57 98.29C159.57 101.755 162.379 104.564 165.844 104.564Z" fill="#310047"/>
</svg>
